# xmcd
#
# Track frame offsets:
#	182
#	18122
#	37427
#	57807
#	81525
#	101250
#	117870
#	137962
#	180595
#	196415
#	222750
#	250242
#
# Disc length: 3663 seconds
# Revision: 3
# Processed by: cddbd v1.5.2PL0 Copyright (c) Steve Scherf et al.
# Submitted via: dBpowerAMP V12.0
#
DISCID=a80e4d0c
DTITLE=Various Artist - Blues in Concert
DYEAR=1995
DGENRE=Blues
TTITLE0=Muddy Waters - Everything's Gonna Be Alright
TTITLE1=Clarence "gatemouth" Brown - Pressure Cooker
TTITLE2=Bobby 'Blue' Bland - I'll Take Care of You
TTITLE3=Muddy Waters - Nine Below Zero
TTITLE4=Albert King - I'll Play the Blues for You
TTITLE5=Bobby 'Blue' Bland - Soul of a Man
TTITLE6=Muddy Waters - Baby Please Don't Go
TTITLE7=Albert King - Stormy Monday Blues
TTITLE8=Bobby 'Blue' Bland - Ain't That Loving You
TTITLE9=Muddy Waters - They Call Me Muddy Waters
TTITLE10=Clarence "gatemouth" Brown - Frosty
TTITLE11=Albert King - Born Under a Bad Sign
EXTD=
EXTT0=
EXTT1=
EXTT2=
EXTT3=
EXTT4=
EXTT5=
EXTT6=
EXTT7=
EXTT8=
EXTT9=
EXTT10=
EXTT11=
PLAYORDER=
